<mxfile modified="2023-08-02T06:27:10.608Z" host="app.diagrams.net" agent="5.0 (Macintosh; Intel Mac OS X 10_15_7) AppleWebKit/537.36 (KHTML, like Gecko) Chrome/114.0.0.0 Safari/537.36" etag="3QmzS9vq6r_WCcYeEPLY" version="20.6.2" type="github">
  <diagram id="f106602c-feb2-e66a-4537-3a34d633f6aa" name="Page-1">
    <mxGraphModel dx="2194" dy="1232" grid="1" gridSize="10" guides="1" tooltips="1" connect="1" arrows="1" fold="1" page="1" pageScale="1" pageWidth="1169" pageHeight="827" background="none" math="0" shadow="0">
      <root>
        <mxCell id="0" />
        <mxCell id="1" parent="0" />
        <mxCell id="_IM9yYIkdlJ8LjXU0fVr-52" style="edgeStyle=orthogonalEdgeStyle;shape=connector;rounded=0;orthogonalLoop=1;jettySize=auto;html=1;dashed=0;labelBackgroundColor=default;strokeColor=#4284F3;strokeWidth=2;fontFamily=Helvetica;fontSize=12;fontColor=#999999;startArrow=none;startFill=0;endArrow=blockThin;endFill=1;startSize=4;endSize=4;" edge="1" parent="1" source="_IM9yYIkdlJ8LjXU0fVr-50">
          <mxGeometry relative="1" as="geometry">
            <mxPoint x="370" y="400" as="targetPoint" />
            <Array as="points">
              <mxPoint x="310" y="230" />
              <mxPoint x="310" y="400" />
            </Array>
          </mxGeometry>
        </mxCell>
        <mxCell id="_IM9yYIkdlJ8LjXU0fVr-53" value="服务日志" style="edgeLabel;html=1;align=center;verticalAlign=middle;resizable=0;points=[];fontSize=12;fontFamily=Helvetica;fontColor=#999999;" vertex="1" connectable="0" parent="_IM9yYIkdlJ8LjXU0fVr-52">
          <mxGeometry x="-0.1196" y="1" relative="1" as="geometry">
            <mxPoint as="offset" />
          </mxGeometry>
        </mxCell>
        <mxCell id="14" value="&lt;b&gt;质量管理中心&lt;/b&gt;" style="fillColor=#F6F6F6;strokeColor=none;shadow=0;gradientColor=none;fontSize=14;align=left;spacing=10;fontColor=#717171;9E9E9E;verticalAlign=top;spacingTop=-4;fontStyle=0;spacingLeft=40;html=1;container=0;" parent="1" vertex="1">
          <mxGeometry x="360" y="110" width="1030" height="540" as="geometry" />
        </mxCell>
        <mxCell id="2" value="质量管理服务" style="fillColor=#4DA1F5;strokeColor=none;shadow=1;gradientColor=none;fontSize=14;align=left;spacingLeft=50;fontColor=#ffffff;html=1;" parent="1" vertex="1">
          <mxGeometry x="120" y="40" width="1305" height="40" as="geometry" />
        </mxCell>
        <mxCell id="8" value="" style="edgeStyle=elbowEdgeStyle;fontSize=12;html=1;endArrow=oval;endFill=1;rounded=0;strokeWidth=2;endSize=6;startSize=4;dashed=0;strokeColor=#4284F3;elbow=vertical;exitX=1;exitY=0.5;exitDx=0;exitDy=0;" parent="1" edge="1" source="_IM9yYIkdlJ8LjXU0fVr-29">
          <mxGeometry width="100" relative="1" as="geometry">
            <mxPoint x="270" y="399.5" as="sourcePoint" />
            <mxPoint x="280" y="400" as="targetPoint" />
          </mxGeometry>
        </mxCell>
        <mxCell id="_IM9yYIkdlJ8LjXU0fVr-36" style="edgeStyle=orthogonalEdgeStyle;shape=connector;rounded=0;orthogonalLoop=1;jettySize=auto;html=1;entryX=0;entryY=0.5;entryDx=0;entryDy=0;dashed=0;labelBackgroundColor=default;strokeColor=#4284F3;strokeWidth=2;fontFamily=Helvetica;fontSize=12;fontColor=default;startArrow=none;startFill=0;endArrow=blockThin;endFill=1;startSize=4;endSize=4;" edge="1" parent="1" source="12" target="_IM9yYIkdlJ8LjXU0fVr-33">
          <mxGeometry relative="1" as="geometry" />
        </mxCell>
        <mxCell id="12" value="" style="strokeColor=#dddddd;fillColor=#ffffff;shadow=1;strokeWidth=1;rounded=1;absoluteArcSize=1;arcSize=2;fontSize=14;fontColor=#808080;align=left;html=1;" parent="1" vertex="1">
          <mxGeometry x="400" y="370" width="170" height="60" as="geometry" />
        </mxCell>
        <mxCell id="13" value="&lt;font color=&quot;#000000&quot;&gt;质量数据收集网关&lt;/font&gt;&lt;br&gt;日志数据、采样数据" style="dashed=0;connectable=0;html=1;fillColor=#5184F3;strokeColor=none;shape=mxgraph.gcp2.hexIcon;prIcon=cloud_endpoints;part=1;labelPosition=right;verticalLabelPosition=middle;align=left;verticalAlign=middle;spacingLeft=5;fontColor=#999999;fontSize=12;" parent="12" vertex="1">
          <mxGeometry y="0.5" width="44" height="39" relative="1" as="geometry">
            <mxPoint x="5" y="-19.5" as="offset" />
          </mxGeometry>
        </mxCell>
        <mxCell id="18" value="" style="edgeStyle=orthogonalEdgeStyle;fontSize=12;html=1;endArrow=blockThin;endFill=1;rounded=0;strokeWidth=2;endSize=4;startSize=4;dashed=0;strokeColor=#4284F3;startArrow=none;startFill=0;" parent="1" edge="1">
          <mxGeometry width="100" relative="1" as="geometry">
            <mxPoint x="290" y="400" as="sourcePoint" />
            <mxPoint x="377" y="400" as="targetPoint" />
            <Array as="points">
              <mxPoint x="330" y="400" />
              <mxPoint x="330" y="400" />
            </Array>
          </mxGeometry>
        </mxCell>
        <mxCell id="_IM9yYIkdlJ8LjXU0fVr-37" value="&lt;font color=&quot;#999999&quot;&gt;上报&lt;/font&gt;" style="edgeLabel;html=1;align=center;verticalAlign=middle;resizable=0;points=[];fontSize=12;fontFamily=Helvetica;fontColor=default;" vertex="1" connectable="0" parent="18">
          <mxGeometry x="-0.2184" relative="1" as="geometry">
            <mxPoint y="1" as="offset" />
          </mxGeometry>
        </mxCell>
        <mxCell id="20" value="" style="edgeStyle=orthogonalEdgeStyle;fontSize=12;html=1;endArrow=oval;endFill=1;rounded=0;strokeWidth=2;endSize=6;startSize=4;dashed=0;strokeColor=#4284F3;exitX=0;exitY=0.149;exitPerimeter=0;" parent="1" edge="1">
          <mxGeometry width="100" relative="1" as="geometry">
            <mxPoint x="400.09302325581393" y="382.8604651162791" as="sourcePoint" />
            <mxPoint x="390" y="383" as="targetPoint" />
          </mxGeometry>
        </mxCell>
        <mxCell id="21" value="" style="edgeStyle=orthogonalEdgeStyle;fontSize=12;html=1;endArrow=oval;endFill=1;rounded=0;strokeWidth=2;endSize=6;startSize=4;dashed=0;strokeColor=#4284F3;" parent="1" edge="1">
          <mxGeometry width="100" relative="1" as="geometry">
            <mxPoint x="400" y="400" as="sourcePoint" />
            <mxPoint x="389.9902912621359" y="399.9126213592233" as="targetPoint" />
          </mxGeometry>
        </mxCell>
        <mxCell id="22" value="" style="edgeStyle=orthogonalEdgeStyle;fontSize=12;html=1;endArrow=oval;endFill=1;rounded=0;strokeWidth=2;endSize=6;startSize=4;dashed=0;strokeColor=#4284F3;" parent="1" edge="1">
          <mxGeometry width="100" relative="1" as="geometry">
            <mxPoint x="400" y="416.04651162790697" as="sourcePoint" />
            <mxPoint x="389.9902912621359" y="415.91262135922335" as="targetPoint" />
          </mxGeometry>
        </mxCell>
        <mxCell id="_IM9yYIkdlJ8LjXU0fVr-29" value="终端" style="strokeColor=#dddddd;shadow=1;strokeWidth=1;rounded=1;absoluteArcSize=1;arcSize=2;labelPosition=center;verticalLabelPosition=middle;align=center;verticalAlign=bottom;spacingLeft=0;fontColor=#999999;fontSize=12;whiteSpace=wrap;spacingBottom=2;" vertex="1" parent="1">
          <mxGeometry x="200" y="350" width="70" height="100" as="geometry" />
        </mxCell>
        <mxCell id="_IM9yYIkdlJ8LjXU0fVr-30" value="" style="sketch=0;dashed=0;connectable=0;html=1;fillColor=#757575;strokeColor=none;shape=mxgraph.gcp2.mobile_devices;part=1;" vertex="1" parent="_IM9yYIkdlJ8LjXU0fVr-29">
          <mxGeometry x="0.5" width="50" height="36.5" relative="1" as="geometry">
            <mxPoint x="-25" y="16.75" as="offset" />
          </mxGeometry>
        </mxCell>
        <mxCell id="_IM9yYIkdlJ8LjXU0fVr-41" style="edgeStyle=orthogonalEdgeStyle;shape=connector;rounded=0;orthogonalLoop=1;jettySize=auto;html=1;dashed=0;labelBackgroundColor=default;strokeColor=#4284F3;strokeWidth=2;fontFamily=Helvetica;fontSize=12;fontColor=#999999;startArrow=oval;startFill=1;endArrow=oval;endFill=1;startSize=4;endSize=4;" edge="1" parent="1">
          <mxGeometry relative="1" as="geometry">
            <mxPoint x="235" y="500" as="sourcePoint" />
            <mxPoint x="235" y="450" as="targetPoint" />
          </mxGeometry>
        </mxCell>
        <mxCell id="_IM9yYIkdlJ8LjXU0fVr-38" value="" style="strokeColor=#dddddd;shadow=1;strokeWidth=1;rounded=1;absoluteArcSize=1;arcSize=2;fontFamily=Helvetica;fontSize=12;fontColor=#999999;" vertex="1" parent="1">
          <mxGeometry x="170" y="500" width="140" height="60" as="geometry" />
        </mxCell>
        <mxCell id="_IM9yYIkdlJ8LjXU0fVr-39" value="终端日志&#xa;数据采样&#xa;本地高效缓存&#xa;智能上报策略" style="editableCssRules=.*;fontColor=#999999;shape=image;verticalLabelPosition=middle;labelBackgroundColor=#ffffff;verticalAlign=middle;labelPosition=right;align=left;spacingLeft=5;part=1;points=[];imageAspect=0;image=data:image/svg+xml,PHN2ZyB4bWxucz0iaHR0cDovL3d3dy53My5vcmcvMjAwMC9zdmciIHhtbG5zOnY9Imh0dHBzOi8vdmVjdGEuaW8vbmFubyIgd2lkdGg9IjE5LjkzMzEzNDA3ODk3OTQ5MiIgaGVpZ2h0PSIxMC44NjAwMDA2MTAzNTE1NjIiIHZpZXdCb3g9IjAuMDAwMDI2NTAxNDY0MTYyNzIwMzY3IC0zLjgxMjY2MDA1NDMzNjQ0NzVlLTggMTkuOTMzMTM0MDc4OTc5NDkyIDEwLjg2MDAwMDYxMDM1MTU2MiI+JiN4YTsJPHN0eWxlIHR5cGU9InRleHQvY3NzIj4uc3QwIHsgZmlsbDogcmdiKDEwMiwgMTAyLCAxMDIpOyB9IC5zdDEgeyBmaWxsOiByZ2IoMTAyLCAxMDIsIDEwMik7IH0gLnN0MiB7IGZpbGw6IHJnYig4NSwgODUsIDg1KTsgfSA8L3N0eWxlPiYjeGE7CTxwYXRoIGNsYXNzPSJzdDAiIGQ9Ik0xOS41NjMgMEg3LjE5M2EuMzIuMzIgMCAwIDAtLjMyLjMzdjIuMTZhLjMyLjMyIDAgMCAwIC4zMi4zMmgxMi4zN2EuMzIuMzIgMCAwIDAgLjM3LS4zMlYuMzNhLjMyLjMyIDAgMCAwLS4zMS0uMzN6TTguNDIzIDIuMTRhLjcuNyAwIDEgMSAuNy0uN2gwYS43LjcgMCAwIDEtLjcuN3ptMTEuMTQgMS45SDcuMTkzYS4zMi4zMiAwIDAgMC0uMzIuMzJ2Mi4xNWEuMzIuMzIgMCAwIDAgLjMyLjMyaDEyLjM3YS4zMi4zMiAwIDAgMCAuMzItLjMyVjQuMzZhLjMyLjMyIDAgMCAwLS4zMi0uMzJ6TTguNDIzIDYuMThhLjcuNyAwIDEgMSAuNy0uN2gwYS43LjcgMCAwIDEtLjcuN3ptMTEuMTkgMS44N0g3LjI1M2EuMzIuMzIgMCAwIDAtLjMyLjMydjIuMTZhLjMyLjMyIDAgMCAwIC4zMi4zM2gxMi4zNmEuMzIuMzIgMCAwIDAgLjMyLS4zM1Y4LjM3YS4zMi4zMiAwIDAgMC0uMzItLjMyem0tMTEuMTQgMi4xM2EuNzEuNzEgMCAwIDEtLjctLjcxLjcxLjcxIDAgMCAxIDEuNDEgMCAuNzEuNzEgMCAwIDEtLjcxLjcxeiIvPiYjeGE7CTxwYXRoIGNsYXNzPSJzdDEiIGQ9Ik00LjY3MyAzLjI5aC0yLjEzYS44MTIuODEyIDAgMCAxLS4yMS0xLjYxaDIuMzRhLjgxNS44MTUgMCAxIDEgLjI2IDEuNjF6Ii8+JiN4YTsJPHBhdGggY2xhc3M9InN0MiIgZD0iTTQuNjczIDYuMjRILjg1M2EuODIuODIgMCAwIDEtLjIxLTEuNjJoNGEuODIzLjgyMyAwIDAgMSAuMjkgMS42MnoiLz4mI3hhOwk8cGF0aCBjbGFzcz0ic3QxIiBkPSJNNC42NzMgOS4xOGgtMi4xM2EuODEyLjgxMiAwIDAgMS0uMjEtMS42MWgyLjM0YS44MTUuODE1IDAgMCAxIC4yNiAxLjYxeiIvPiYjeGE7PC9zdmc+;fontFamily=Helvetica;fontSize=12;" vertex="1" parent="_IM9yYIkdlJ8LjXU0fVr-38">
          <mxGeometry width="30" height="16" relative="1" as="geometry">
            <mxPoint x="15" y="22" as="offset" />
          </mxGeometry>
        </mxCell>
        <mxCell id="_IM9yYIkdlJ8LjXU0fVr-50" value="服务器" style="strokeColor=#dddddd;shadow=1;strokeWidth=1;rounded=1;absoluteArcSize=1;arcSize=2;labelPosition=center;verticalLabelPosition=middle;align=center;verticalAlign=bottom;spacingLeft=0;fontColor=#999999;fontSize=12;whiteSpace=wrap;spacingBottom=2;fontFamily=Helvetica;" vertex="1" parent="1">
          <mxGeometry x="200" y="190" width="70" height="85" as="geometry" />
        </mxCell>
        <mxCell id="_IM9yYIkdlJ8LjXU0fVr-51" value="" style="sketch=0;dashed=0;connectable=0;html=1;fillColor=#757575;strokeColor=none;shape=mxgraph.gcp2.database;part=1;fontFamily=Helvetica;fontSize=12;fontColor=#999999;" vertex="1" parent="_IM9yYIkdlJ8LjXU0fVr-50">
          <mxGeometry x="0.5" width="50" height="45" relative="1" as="geometry">
            <mxPoint x="-25" y="12.5" as="offset" />
          </mxGeometry>
        </mxCell>
        <mxCell id="15" value="" style="shape=mxgraph.gcp2.google_cloud_platform;fillColor=#F6F6F6;strokeColor=none;shadow=0;gradientColor=none;" parent="1" vertex="1">
          <mxGeometry x="380" y="120" width="23" height="20" as="geometry">
            <mxPoint x="20" y="10" as="offset" />
          </mxGeometry>
        </mxCell>
        <mxCell id="_IM9yYIkdlJ8LjXU0fVr-61" style="edgeStyle=orthogonalEdgeStyle;shape=connector;rounded=0;orthogonalLoop=1;jettySize=auto;html=1;exitX=1;exitY=0.5;exitDx=0;exitDy=0;entryX=0;entryY=0.5;entryDx=0;entryDy=0;dashed=0;labelBackgroundColor=default;strokeColor=#4284F3;strokeWidth=2;fontFamily=Helvetica;fontSize=12;fontColor=#999999;startArrow=none;startFill=0;endArrow=blockThin;endFill=1;startSize=4;endSize=4;" edge="1" parent="1" source="_IM9yYIkdlJ8LjXU0fVr-33" target="_IM9yYIkdlJ8LjXU0fVr-58">
          <mxGeometry relative="1" as="geometry" />
        </mxCell>
        <mxCell id="_IM9yYIkdlJ8LjXU0fVr-33" value="" style="strokeColor=#dddddd;shadow=1;strokeWidth=1;rounded=1;absoluteArcSize=1;arcSize=2;" vertex="1" parent="1">
          <mxGeometry x="640" y="370" width="170" height="60" as="geometry" />
        </mxCell>
        <mxCell id="_IM9yYIkdlJ8LjXU0fVr-34" value="&lt;span style=&quot;color: rgb(0, 0, 0);&quot;&gt;原始数据存储&lt;/span&gt;&lt;br&gt;配置存储周期&lt;br&gt;循环覆盖" style="editableCssRules=.*;html=1;fontColor=#999999;shape=image;verticalLabelPosition=middle;labelBackgroundColor=#ffffff;verticalAlign=middle;labelPosition=right;align=left;spacingLeft=20;part=1;points=[];imageAspect=0;image=data:image/svg+xml,PHN2ZyB4bWxucz0iaHR0cDovL3d3dy53My5vcmcvMjAwMC9zdmciIHhtbG5zOnY9Imh0dHBzOi8vdmVjdGEuaW8vbmFubyIgd2lkdGg9IjE0LjY1OTk5OTg0NzQxMjExIiBoZWlnaHQ9IjIwIiB2aWV3Qm94PSIwIDAgMTQuNjU5OTk5ODQ3NDEyMTEgMjAiPiYjeGE7CTxzdHlsZSB0eXBlPSJ0ZXh0L2NzcyI+JiN4YTsJLnN0MHtmaWxsOiM0Mjg1ZjQ7fSYjeGE7CS5zdDF7ZmlsbDojNjY5ZGY2O30mI3hhOwkuc3Qye2ZpbGw6I2FlY2JmYTt9JiN4YTsJPC9zdHlsZT4mI3hhOwk8c3R5bGU+JiN4YTsJCS5Ee2ZpbGwtcnVsZTpldmVub2RkfSYjeGE7CTwvc3R5bGU+JiN4YTsJPHBhdGggZD0iTTcuMzMgMTUuMzV2LTMuMDFMMCA4LjQ0djMuMDF6bTAgNC42NXYtMy4wMUwwIDEzLjA5djMuMDF6IiBjbGFzcz0ic3QyIEQiLz4mI3hhOwk8cGF0aCBkPSJNMTQuNjYgOC40NGwtNy4zMyAzLjl2My4wMWw3LjMzLTMuOXptMCA0LjY1bC03LjMzIDMuOVYyMGw3LjMzLTMuOXoiIGNsYXNzPSJzdDEgRCIvPiYjeGE7CTxwYXRoIGQ9Ik03LjMzIDB2My4wMWw3LjMzIDMuOVYzLjl6IiBjbGFzcz0ic3QwIEQiLz4mI3hhOwk8cGF0aCBkPSJNMCA2LjkxbDcuMzMtMy45VjBMMCAzLjl6IiBjbGFzcz0iRCBzdDEiLz4mI3hhOwk8cGF0aCBkPSJNNy4zMyAxMC43OVY3Ljc3TDAgMy44N3YzLjAyeiIgY2xhc3M9IkQgc3QyIi8+JiN4YTsJPHBhdGggZD0iTTE0LjY2IDMuODdsLTcuMzMgMy45djMuMDJsNy4zMy0zLjl6IiBjbGFzcz0iRCBzdDEiLz4mI3hhOzwvc3ZnPg==;" vertex="1" parent="_IM9yYIkdlJ8LjXU0fVr-33">
          <mxGeometry width="22" height="30" relative="1" as="geometry">
            <mxPoint x="19" y="15" as="offset" />
          </mxGeometry>
        </mxCell>
        <mxCell id="_IM9yYIkdlJ8LjXU0fVr-74" style="edgeStyle=orthogonalEdgeStyle;shape=connector;rounded=0;orthogonalLoop=1;jettySize=auto;html=1;exitX=1;exitY=0.5;exitDx=0;exitDy=0;dashed=0;labelBackgroundColor=default;strokeColor=#4284F3;strokeWidth=2;fontFamily=Helvetica;fontSize=12;fontColor=#999999;startArrow=none;startFill=0;endArrow=blockThin;endFill=1;startSize=4;endSize=4;" edge="1" parent="1" source="_IM9yYIkdlJ8LjXU0fVr-58">
          <mxGeometry relative="1" as="geometry">
            <mxPoint x="1150" y="400" as="targetPoint" />
          </mxGeometry>
        </mxCell>
        <mxCell id="_IM9yYIkdlJ8LjXU0fVr-58" value="" style="strokeColor=#dddddd;shadow=1;strokeWidth=1;rounded=1;absoluteArcSize=1;arcSize=2;fontFamily=Helvetica;fontSize=12;fontColor=#999999;" vertex="1" parent="1">
          <mxGeometry x="880" y="370" width="170" height="60" as="geometry" />
        </mxCell>
        <mxCell id="_IM9yYIkdlJ8LjXU0fVr-59" value="&lt;font color=&quot;#000000&quot;&gt;数据分析&lt;/font&gt;&lt;br&gt;数据归类、分析" style="editableCssRules=.*;html=1;fontColor=#999999;shape=image;verticalLabelPosition=middle;labelBackgroundColor=#ffffff;verticalAlign=middle;labelPosition=right;align=left;spacingLeft=20;part=1;points=[];imageAspect=0;image=data:image/svg+xml,PHN2ZyB4bWxucz0iaHR0cDovL3d3dy53My5vcmcvMjAwMC9zdmciIHhtbG5zOnY9Imh0dHBzOi8vdmVjdGEuaW8vbmFubyIgd2lkdGg9IjI3MS44OTgxMDE4MDY2NDA2IiBoZWlnaHQ9IjQyMy4wMDQwMjgzMjAzMTI1IiB2aWV3Qm94PSIwLjAwMDQ2MTI3MDM2MzMwMjkwMTQgMCAyNzEuODk4MTAxODA2NjQwNiA0MjMuMDA0MDI4MzIwMzEyNSI+JiN4YTsJPHN0eWxlIHR5cGU9InRleHQvY3NzIj4mI3hhOwkuc3Qwe2ZpbGw6IzQyODVmNDtmaWxsLXJ1bGU6ZXZlbm9kZH0mI3hhOwk8L3N0eWxlPiYjeGE7CTxwYXRoIGNsYXNzPSJzdDAiIGQ9Ik0xOTcuMzc4IDE0NC43NzRhMy4xMSAzLjExIDAgMCAxIDMuMTA1IDIuOTM0bC4wMDUuMTc3djE3LjEwN2EzLjExIDMuMTEgMCAwIDEtMi45MzQgMy4xMDVsLS4xNzcuMDA1aC0xMi40NDF2MzAuNjQ5YzAgMS4yMjcuMjk3IDIuNDM1Ljg2MiAzLjUyMmwuMTYxLjI5MyA4My44OTUgMTQ0LjI2MmExNS4yNiAxNS4yNiAwIDAgMSAuMTgyIDE0LjkzNmwtLjE4Mi4zMjQtMzAuNDMxIDUzLjI4NmExNS4yNiAxNS4yNiAwIDAgMS0xMi44NjEgNy42MjZsLS4zNTUuMDA0SDQ1LjY5MmExNS4yNiAxNS4yNiAwIDAgMS0xMy4wMzUtNy4zMjRsLS4xODEtLjMwNS0zMC40MzEtNTMuMjg2YTE1LjI2IDE1LjI2IDAgMCAxLS4xODItMTQuOTM2bC4xODItLjMyNCA4My42NzQtMTQ0LjI2MmMuNjIxLTEuMDc3IDEuMTYtMi4yODkgMS4yMzQtMy41MjhsLjAwOS0uMjg3di0zMC42NDlINzQuNTJjLTEuNjU4IDAtMy4wMTQtMS4yOTktMy4xMDUtMi45MzRsLS4wMDUtLjE3NnYtMTcuMTA3YTMuMTEgMy4xMSAwIDAgMSAyLjkzNC0zLjEwNWwuMTc2LS4wMDV6bS0zNS43NjkgMjMuMzI3aC01MS4zMnYzNS40MDVjMCAyLjUzMS0uNjI4IDUuMDE4LTEuODI2IDcuMjQybC0uMjE3LjM5TDI4LjAzMyAzNTAuOWE3LjYzIDcuNjMgMCAwIDAtLjEzOSA3LjM3NWwuMTQxLjI1NSAyMC43NDEgMzUuOTIxYTcuNjMgNy42MyAwIDAgMCA2LjMyNyAzLjgxbC4yODEuMDA1aDI1LjU3MmwtMjIuNjA1LTM5LjE1M2MtMS4zMTQtMi4yNzYtMS4zNjEtNS4wNjItLjE0MS03LjM3NWwuMTQxLS4yNTUgMTkuNjc5LTM0LjA4NmgxNDYuNjA2TDIxMi45ODggMjk3LjFoLTU0LjI1OWwtOC44MjEtMTUuMjc4aDU0LjMxMmwtMTYuMzMzLTI4LjQ2aC01NC43OGwtOC44MjEtMTUuMjc4aDU0LjgzM2wtMTUuNDY1LTI2Ljk0NmExNS4yNyAxNS4yNyAwIDAgMS0yLjAzOS03LjE4NWwtLjAwNy0uNDQ2em03Mi44NDQgMTY2LjQwMWwtNTQuMTgxLjAwMSA4LjgyMSAxNS41NTJoNTQuMjg1ek0xMDQuOTIxIDc5Ljc5NWM4LjQyNyAwIDE1LjI1OSA2LjgzMyAxNS4yNTkgMTUuMjYxcy02LjgzMiAxNS4yNTktMTUuMjU5IDE1LjI1OS0xNS4yNTktNi44MzItMTUuMjU5LTE1LjI1OSA2LjgzMi0xNS4yNjEgMTUuMjU5LTE1LjI2MXptNTcuNTc1LTMyLjc0M2MxMi42NDIgMCAyMi44OSAxMC4yNDcgMjIuODkgMjIuODg5cy0xMC4yNDkgMjIuODg5LTIyLjg5IDIyLjg4OS0yMi44ODktMTAuMjQ5LTIyLjg4OS0yMi44ODkgMTAuMjQ3LTIyLjg4OSAyMi44ODktMjIuODg5ek0xMjcuODEgMGM4LjQyNyAwIDE1LjI2MSA2LjgzMyAxNS4yNjEgMTUuMjYxUzEzNi4yMzcgMzAuNTIgMTI3LjgxIDMwLjUycy0xNS4yNTktNi44MzItMTUuMjU5LTE1LjI1OVMxMTkuMzg0IDAgMTI3LjgxIDB6Ii8+JiN4YTs8L3N2Zz4=;fontFamily=Helvetica;fontSize=12;" vertex="1" parent="_IM9yYIkdlJ8LjXU0fVr-58">
          <mxGeometry width="20" height="30" relative="1" as="geometry">
            <mxPoint x="20" y="15" as="offset" />
          </mxGeometry>
        </mxCell>
        <mxCell id="_IM9yYIkdlJ8LjXU0fVr-62" value="" style="group" vertex="1" connectable="0" parent="1">
          <mxGeometry x="1151" y="215" width="190" height="370" as="geometry" />
        </mxCell>
        <mxCell id="_IM9yYIkdlJ8LjXU0fVr-43" value="" style="strokeColor=#dddddd;shadow=1;strokeWidth=1;rounded=1;absoluteArcSize=1;arcSize=2;fontFamily=Helvetica;fontSize=12;fontColor=#999999;" vertex="1" parent="_IM9yYIkdlJ8LjXU0fVr-62">
          <mxGeometry width="190" height="60" as="geometry" />
        </mxCell>
        <mxCell id="_IM9yYIkdlJ8LjXU0fVr-44" value="&lt;font color=&quot;#000000&quot;&gt;音视频实时质量&lt;/font&gt;&lt;br&gt;实时质量图表展示" style="editableCssRules=.*;html=1;fontColor=#999999;shape=image;verticalLabelPosition=middle;labelBackgroundColor=#ffffff;verticalAlign=middle;labelPosition=right;align=left;spacingLeft=20;part=1;points=[];imageAspect=0;image=data:image/svg+xml,PHN2ZyB4bWxucz0iaHR0cDovL3d3dy53My5vcmcvMjAwMC9zdmciIHhtbG5zOnY9Imh0dHBzOi8vdmVjdGEuaW8vbmFubyIgd2lkdGg9IjIwIiBoZWlnaHQ9IjEzLjUyOTk5OTczMjk3MTE5MSIgdmlld0JveD0iLTIuOTMyMDk3ODk3ODEyMDE0ZS05IC01LjI1ODAxNTA0MTgzNzk1NmUtMTUgMjAgMTMuNTI5OTk5NzMyOTcxMTkxIj4mI3hhOwk8c3R5bGUgdHlwZT0idGV4dC9jc3MiPiYjeGE7CS5zdDB7ZmlsbDojNDI4NWY0O30mI3hhOwkuc3Qxe2ZpbGw6IzY2OWRmNjt9JiN4YTsJPC9zdHlsZT4mI3hhOwk8cGF0aCBjbGFzcz0ic3QxIiBkPSJNOC44MyAxMC41OGgyLjMzdjIuNjRIOC44M3oiLz4mI3hhOwk8cGF0aCBjbGFzcz0ic3QwIiBkPSJNMTYuNDggOC42MWEuNTYuNTYgMCAwIDEtLjQtLjE3TDEyIDQuMjEgOS4yNiA3LjFhLjU3LjU3IDAgMCAxLS43Ni4wNUw2LjQyIDUuNDdsLTIuMiAyLjkyYS41Ni41NiAwIDAgMS0uNDUuMjJIMHYxLjcxYS43NS43NSAwIDAgMCAuNzQuNzVoMTguNTJhLjc1Ljc1IDAgMCAwIC43NC0uNzVWOC42MXoiLz4mI3hhOwk8cGF0aCBjbGFzcz0ic3QxIiBkPSJNMy41IDcuNWwyLjM4LTMuMTZhLjU1LjU1IDAgMCAxIC4zNy0uMjIuNjMuNjMgMCAwIDEgLjQyLjEybDIuMTIgMS43MiAyLjgtMi45NGEuNTQuNTQgMCAwIDEgLjQtLjE3aDBhLjU0LjU0IDAgMCAxIC40LjE3bDQuMzMgNC40OEgyMFYuNzRhLjc0Ljc0IDAgMCAwLS43NC0uNzRILjc0QS43NC43NCAwIDAgMCAwIC43NHY2LjgxeiIvPiYjeGE7CTxyZWN0IGNsYXNzPSJzdDAiIHg9IjYuNjciIHk9IjEyLjkyIiB3aWR0aD0iNi42NyIgaGVpZ2h0PSIuNjEiIHJ4PSIuMyIvPiYjeGE7PC9zdmc+;fontFamily=Helvetica;fontSize=12;" vertex="1" parent="_IM9yYIkdlJ8LjXU0fVr-43">
          <mxGeometry width="30" height="21" relative="1" as="geometry">
            <mxPoint x="15" y="19" as="offset" />
          </mxGeometry>
        </mxCell>
        <mxCell id="_IM9yYIkdlJ8LjXU0fVr-45" value="" style="strokeColor=#dddddd;shadow=1;strokeWidth=1;rounded=1;absoluteArcSize=1;arcSize=2;fontFamily=Helvetica;fontSize=12;fontColor=#999999;" vertex="1" parent="_IM9yYIkdlJ8LjXU0fVr-62">
          <mxGeometry y="103" width="190" height="60" as="geometry" />
        </mxCell>
        <mxCell id="_IM9yYIkdlJ8LjXU0fVr-46" value="&lt;font color=&quot;#000000&quot;&gt;实时监控预警&lt;/font&gt;&lt;br&gt;服务监控、预警" style="editableCssRules=.*;html=1;fontColor=#999999;shape=image;verticalLabelPosition=middle;labelBackgroundColor=#ffffff;verticalAlign=middle;labelPosition=right;align=left;spacingLeft=20;part=1;points=[];imageAspect=0;image=data:image/svg+xml,PHN2ZyB4bWxucz0iaHR0cDovL3d3dy53My5vcmcvMjAwMC9zdmciIHhtbG5zOnY9Imh0dHBzOi8vdmVjdGEuaW8vbmFubyIgd2lkdGg9IjMxNC44ODMzMTI4NTM1OTA3IiBoZWlnaHQ9IjM3Ny4zNTIwNjc2NDgzMTU0IiB2aWV3Qm94PSItMC41MDE5OTg5MDEzNjcxODc1IDAuMDEzMDAwMDAwMjY4MjIwOTAxIDgzLjMxMjk5NTkxMDY0NDUzIDk5Ljg0MTAwMzQxNzk2ODc1Ij4mI3hhOzxzdHlsZSB0eXBlPSJ0ZXh0L2NzcyI+JiN4YTsJLnN0MHtmaWxsOiNhZWNiZmE7fSYjeGE7CS5zdDF7ZmlsbDojNjY5ZGY2O30mI3hhOzwvc3R5bGU+JiN4YTsJPHBhdGggY2xhc3M9InN0MCIgZD0iTTM5LjQ5OSAzOS42NzJ2MjAuMDI5TDIyLjk3MyA3MS42N2EyMC4yNCAyMC4yNCAwIDAgMCAzMC43ODIgMi41NTQgMjAuMjQgMjAuMjQgMCAwIDAgNS45MjgtMTQuMzEyYzAtMTEuMTU3LTkuMDI4LTIwLjIwOS0yMC4xODUtMjAuMjR6bS0xLjMwNC4wMzlsLS4wNDkuMDAzLjA0OS0uMDAzem0tLjk2LjA4OWEyMC4yNCAyMC4yNCAwIDAgMC0xNy41MyAxNS42NzNjMS45MzgtOC4zMDYgOS4xNjMtMTQuNjg0IDE3LjUzLTE1LjY3M3pNMTkuNjEyIDU1Ljg5MmwtLjA3Mi4zNTcuMDcyLS4zNTd6Ii8+JiN4YTsJPHBhdGggY2xhc3M9InN0MSIgZD0iTTM5LjQ5OSA1OS43MDFMMjIuOTY2IDcxLjY3NmEyMC4xNSAyMC4xNSAwIDAgMS0zLjc3Mi0xMS43N2MwLTExLjE3OSA5LjUzOC0yMC4yNDEgMjAuMzA0LTIwLjI0MXptMzUuNTE1LTQ0LjY2NUw2Mi42MzIgMjcuNDc2Yy02LjU0OC00LjY5OS0xNC41NjQtNy40NzItMjMuMjA4LTcuNDcyLTIxLjk5MSAwLTM5LjkyNiAxNy45MzUtMzkuOTI2IDM5LjkyNnMxNy45MzUgMzkuOTI0IDM5LjkyNiAzOS45MjRTNzkuMzQ4IDgxLjkyIDc5LjM0OCA1OS45MjljMC05LjM5NC0zLjI3NC0xOC4wNDYtOC43MzctMjQuODc4bDEyLjItMTIuMjU0em0tMzUuNTkgMTQuOTY3YTI5Ljg1IDI5Ljg1IDAgMCAxIDI5LjkyNCAyOS45MjYgMjkuODUgMjkuODUgMCAwIDEtMjkuOTI0IDI5LjkyNEEyOS44NSAyOS44NSAwIDAgMSA5LjQ5OCA1OS45MjljMC0xNi41ODYgMTMuMzM5LTI5LjkyNiAyOS45MjYtMjkuOTI2ek02MC4xODUuMDEzTDE5LjU3Mi4wOGwuMDE2IDkuNSA0MC42MTMtLjA2NnoiLz4mI3hhOzwvc3ZnPg==;fontFamily=Helvetica;fontSize=12;" vertex="1" parent="_IM9yYIkdlJ8LjXU0fVr-45">
          <mxGeometry width="26" height="30" relative="1" as="geometry">
            <mxPoint x="17" y="15" as="offset" />
          </mxGeometry>
        </mxCell>
        <mxCell id="_IM9yYIkdlJ8LjXU0fVr-54" value="" style="strokeColor=#dddddd;shadow=1;strokeWidth=1;rounded=1;absoluteArcSize=1;arcSize=2;fontFamily=Helvetica;fontSize=12;fontColor=#999999;" vertex="1" parent="_IM9yYIkdlJ8LjXU0fVr-62">
          <mxGeometry y="207" width="190" height="60" as="geometry" />
        </mxCell>
        <mxCell id="_IM9yYIkdlJ8LjXU0fVr-55" value="&lt;font color=&quot;#000000&quot;&gt;自助诊断&lt;/font&gt;&lt;br&gt;情景还原、自助诊断" style="editableCssRules=.*;html=1;fontColor=#999999;shape=image;verticalLabelPosition=middle;labelBackgroundColor=#ffffff;verticalAlign=middle;labelPosition=right;align=left;spacingLeft=20;part=1;points=[];imageAspect=0;image=data:image/svg+xml,PHN2ZyB4bWxucz0iaHR0cDovL3d3dy53My5vcmcvMjAwMC9zdmciIHhtbG5zOnY9Imh0dHBzOi8vdmVjdGEuaW8vbmFubyIgd2lkdGg9IjM3Ni4yNzQ4ODc3NTcyNjMyIiBoZWlnaHQ9IjMzOS42NzM1NDQyMTc3NjM4MyIgdmlld0JveD0iMC4xMTQwMDAwMDAwNTk2MDQ2NCAtMC4wOTAwMDAwMDM1NzYyNzg2OSA5OS41NTU5OTk3NTU4NTkzOCA4OS44NzE5OTQwMTg1NTQ2OSI+JiN4YTs8c3R5bGUgdHlwZT0idGV4dC9jc3MiPiYjeGE7CS5zdDB7ZmlsbDojNDI4NWY0O30mI3hhOwkuc3Qxe2ZpbGw6I2FlY2JmYTt9JiN4YTs8L3N0eWxlPiYjeGE7CTxwYXRoIGNsYXNzPSJzdDAiIGQ9Ik03Ny41MjMgNDMuMzk3bDEyLjg0NCA3LjU3MnYxNC43NjdsLTEyLjg0NCA2LjY4ek01MC4zMTItLjA5bDEyLjg0NCA3LjU3MnYxNC43NjdsLTEyLjg0NCA2LjY4ek0yMy4xIDQzLjM5N2wxMi44NDQgNy41NzJ2MTQuNzY3TDIzLjEgNzIuNDE3em02OS40Ny0uNTExbDcuMS0xMS4xNjktMTIuNjY2LTIxLjU5NEg3MC42NDR2OS41aDEwLjkxOWw2Ljk3NyAxMS44OTUtNC4yNTYgNi42OTR6bS03Ni45NzktNC42TDExLjMgMzEuNDg1bDcuMjY0LTExLjg2MWg5Ljk3OWwuMDk5LTkuNUgxMy4yNDFMLjExNCAzMS41NjFsMS41NzYgMi40OTggNS41MTUgOC43Mzl6bTEzLjY2MiAzOS40NDlsNy42MDMgMTIuMDQ3aDI1LjkwMmw3LjczMy0xMi4xNjQtOC4xNDMtNC44OTktNC44MDggNy41NjRINDIuMDk1bC00Ljc0LTcuNTExeiIvPiYjeGE7CTxwYXRoIGNsYXNzPSJzdDEiIGQ9Ik03Ny41MjMgNDMuMzk3bC0xMi44NDQgNy41NzJ2MTQuNzY3bDEyLjg0NCA2LjY4ek01MC4zMTItLjA5TDM3LjQ2OCA3LjQ4MnYxNC43NjdsMTIuODQ0IDYuNjh6TTIzLjEgNDMuMzk3bC0xMi44NDQgNy41NzJ2MTQuNzY3bDEyLjg0NCA2LjY4eiIvPiYjeGE7PC9zdmc+;fontFamily=Helvetica;fontSize=12;" vertex="1" parent="_IM9yYIkdlJ8LjXU0fVr-54">
          <mxGeometry width="30" height="27" relative="1" as="geometry">
            <mxPoint x="15" y="16" as="offset" />
          </mxGeometry>
        </mxCell>
        <mxCell id="_IM9yYIkdlJ8LjXU0fVr-56" value="" style="strokeColor=#dddddd;shadow=1;strokeWidth=1;rounded=1;absoluteArcSize=1;arcSize=2;fontFamily=Helvetica;fontSize=12;fontColor=#999999;" vertex="1" parent="_IM9yYIkdlJ8LjXU0fVr-62">
          <mxGeometry y="310" width="190" height="60" as="geometry" />
        </mxCell>
        <mxCell id="_IM9yYIkdlJ8LjXU0fVr-57" value="&lt;font color=&quot;#000000&quot;&gt;运营大盘&lt;/font&gt;&lt;br&gt;会议场数、在线人数等" style="editableCssRules=.*;html=1;fontColor=#999999;shape=image;verticalLabelPosition=middle;labelBackgroundColor=#ffffff;verticalAlign=middle;labelPosition=right;align=left;spacingLeft=20;part=1;points=[];imageAspect=0;image=data:image/svg+xml,PHN2ZyB4bWxucz0iaHR0cDovL3d3dy53My5vcmcvMjAwMC9zdmciIHhtbG5zOnY9Imh0dHBzOi8vdmVjdGEuaW8vbmFubyIgd2lkdGg9IjIwLjAwMTA0NTIyNzA1MDc4IiBoZWlnaHQ9IjIwLjAwMTA0NTIyNzA1MDc4IiBmaWxsLXJ1bGU9ImV2ZW5vZGQiIHZpZXdCb3g9IjAgMCAyMC4wMDEwNDUyMjcwNTA3OCAyMC4wMDEwNDUyMjcwNTA3OCI+JiN4YTsJPHN0eWxlIHR5cGU9InRleHQvY3NzIj4mI3hhOwkuc3Qwe2ZpbGw6I2FlY2JmYTt9JiN4YTsJLnN0MXtmaWxsOiM2NjlkZjY7fSYjeGE7CS5zdDJ7ZmlsbDojNDI4NWY0O30mI3hhOwk8L3N0eWxlPiYjeGE7CTxwYXRoIGNsYXNzPSJzdDAiIGQ9Ik00LjczIDguODN2Mi42M2E0LjkxIDQuOTEgMCAwIDAgMS43MSAxLjc0VjguODN6Ii8+JiN4YTsJPHBhdGggY2xhc3M9InN0MSIgZD0iTTcuODkgNi40MXY3LjUzQTcuNjIgNy42MiAwIDAgMCA5IDE0YTggOCAwIDAgMCAxIDBWNi40MXoiLz4mI3hhOwk8cGF0aCBjbGFzcz0ic3QwIiBkPSJNMTEuNjQgOS44NnYzLjI5YTUgNSAwIDAgMCAxLjctMS44MlY5Ljg2eiIvPiYjeGE7CTxwYXRoIGNsYXNzPSJzdDIiIGQ9Ik0xNS43NCAxNC4zMmwtMS40MiAxLjQyYS40Mi40MiAwIDAgMCAwIC42bDMuNTQgMy41NGEuNDIuNDIgMCAwIDAgLjU5IDBsMS40My0xLjQzYS40Mi40MiAwIDAgMCAwLS41OWwtMy41NC0zLjU0YS40Mi40MiAwIDAgMC0uNiAwIi8+JiN4YTsJPHBhdGggY2xhc3M9InN0MSIgZD0iTTkgMGE5IDkgMCAxIDAgMCAxOEE5IDkgMCAxIDAgOSAwbTAgMTUuNjlhNi42OCA2LjY4IDAgMCAxIC4wMDctMTMuMzYgNi42OCA2LjY4IDAgMCAxIDQuNzI3IDExLjQwM0E2LjY4IDYuNjggMCAwIDEgOSAxNS42OSIvPiYjeGE7PC9zdmc+;fontFamily=Helvetica;fontSize=12;" vertex="1" parent="_IM9yYIkdlJ8LjXU0fVr-56">
          <mxGeometry width="30" height="30" relative="1" as="geometry">
            <mxPoint x="15" y="15" as="offset" />
          </mxGeometry>
        </mxCell>
        <mxCell id="_IM9yYIkdlJ8LjXU0fVr-78" style="edgeStyle=orthogonalEdgeStyle;shape=connector;rounded=0;orthogonalLoop=1;jettySize=auto;html=1;entryX=0.5;entryY=1;entryDx=0;entryDy=0;dashed=0;labelBackgroundColor=default;strokeColor=#4284F3;strokeWidth=2;fontFamily=Helvetica;fontSize=12;fontColor=#999999;startArrow=oval;startFill=1;endArrow=oval;endFill=1;startSize=4;endSize=4;" edge="1" parent="1" source="_IM9yYIkdlJ8LjXU0fVr-77" target="_IM9yYIkdlJ8LjXU0fVr-33">
          <mxGeometry relative="1" as="geometry" />
        </mxCell>
        <mxCell id="_IM9yYIkdlJ8LjXU0fVr-77" value="clickhouse数据集群" style="dashed=0;strokeColor=#dddddd;shadow=1;strokeWidth=1;labelPosition=center;verticalLabelPosition=middle;align=left;verticalAlign=middle;spacingLeft=5;fontSize=12;fontFamily=Helvetica;fontColor=#999999;" vertex="1" parent="1">
          <mxGeometry x="665" y="470" width="120" height="44" as="geometry" />
        </mxCell>
      </root>
    </mxGraphModel>
  </diagram>
</mxfile>
